<?xml version="1.0" encoding="UTF-8" standalone="no"?>
<svg
   xmlns:ns9="http://www.iki.fi/pav/software/textext/"
   xmlns:dc="http://purl.org/dc/elements/1.1/"
   xmlns:cc="http://creativecommons.org/ns#"
   xmlns:rdf="http://www.w3.org/1999/02/22-rdf-syntax-ns#"
   xmlns:svg="http://www.w3.org/2000/svg"
   xmlns="http://www.w3.org/2000/svg"
   xmlns:sodipodi="http://sodipodi.sourceforge.net/DTD/sodipodi-0.dtd"
   xmlns:inkscape="http://www.inkscape.org/namespaces/inkscape"
   id="svg8"
   version="1.1"
   viewBox="0 0 140.13588 58.64244"
   height="58.642441mm"
   width="140.13588mm"
   inkscape:version="1.0 (4035a4fb49, 2020-05-01)"
   sodipodi:docname="goldbeter_koshland.svg">
  <defs
     id="defs2">
    <marker
       inkscape:isstock="true"
       style="overflow:visible"
       id="StopL"
       refX="0"
       refY="0"
       orient="auto"
       inkscape:stockid="StopL">
      <path
         transform="scale(0.8)"
         style="fill:none;fill-opacity:0.75;fill-rule:evenodd;stroke:#000000;stroke-width:1pt;stroke-opacity:1"
         d="M 0,5.65 V -5.65"
         id="path1130" />
    </marker>
    <marker
       inkscape:isstock="true"
       inkscape:stockid="DistanceStart"
       orient="auto"
       refY="0"
       refX="0"
       id="DistanceStart"
       style="overflow:visible">
      <g
         style="fill:#000000;fill-opacity:1;stroke:#000000;stroke-opacity:1"
         id="g2300">
        <path
           id="path2306"
           d="M 0,0 H 2"
           style="fill:#000000;fill-opacity:1;stroke:#000000;stroke-width:1.15;stroke-linecap:square;stroke-opacity:1" />
        <path
           id="path2302"
           d="M 0,0 13,4 9,0 13,-4 Z"
           style="fill:#000000;fill-opacity:1;fill-rule:evenodd;stroke:#000000;stroke-opacity:1" />
        <path
           id="path2304"
           d="M 0,-4 V 40"
           style="fill:#000000;fill-opacity:1;stroke:#000000;stroke-width:1;stroke-linecap:square;stroke-opacity:1" />
      </g>
    </marker>
    <marker
       inkscape:isstock="true"
       style="overflow:visible"
       id="Arrow1Mend"
       refX="0"
       refY="0"
       orient="auto"
       inkscape:stockid="Arrow1Mend">
      <path
         transform="matrix(-0.4,0,0,-0.4,-4,0)"
         style="fill:#000000;fill-opacity:1;fill-rule:evenodd;stroke:#000000;stroke-width:1pt;stroke-opacity:1"
         d="M 0,0 5,-5 -12.5,0 5,5 Z"
         id="path970" />
    </marker>
    <marker
       inkscape:stockid="Arrow1Mend"
       orient="auto"
       refY="0"
       refX="0"
       id="Arrow1Mend-9"
       style="overflow:visible"
       inkscape:isstock="true">
      <path
         id="path970-5"
         d="M 0,0 5,-5 -12.5,0 5,5 Z"
         style="fill:#000000;fill-opacity:1;fill-rule:evenodd;stroke:#000000;stroke-width:1pt;stroke-opacity:1"
         transform="matrix(-0.4,0,0,-0.4,-4,0)" />
    </marker>
    <marker
       inkscape:isstock="true"
       style="overflow:visible"
       id="Arrow1Mend-9-2"
       refX="0"
       refY="0"
       orient="auto"
       inkscape:stockid="Arrow1Mend">
      <path
         transform="matrix(-0.4,0,0,-0.4,-4,0)"
         style="fill:#000000;fill-opacity:1;fill-rule:evenodd;stroke:#000000;stroke-width:1pt;stroke-opacity:1"
         d="M 0,0 5,-5 -12.5,0 5,5 Z"
         id="path970-5-0" />
    </marker>
    <marker
       inkscape:stockid="Arrow1Mend"
       orient="auto"
       refY="0"
       refX="0"
       id="Arrow1Mend-9-2-0"
       style="overflow:visible"
       inkscape:isstock="true">
      <path
         id="path970-5-0-6"
         d="M 0,0 5,-5 -12.5,0 5,5 Z"
         style="fill:#000000;fill-opacity:1;fill-rule:evenodd;stroke:#000000;stroke-width:1pt;stroke-opacity:1"
         transform="matrix(-0.4,0,0,-0.4,-4,0)" />
    </marker>
    <marker
       inkscape:stockid="Arrow1Mend"
       orient="auto"
       refY="0"
       refX="0"
       id="Arrow1Mend-9-2-5"
       style="overflow:visible"
       inkscape:isstock="true">
      <path
         id="path970-5-0-7"
         d="M 0,0 5,-5 -12.5,0 5,5 Z"
         style="fill:#000000;fill-opacity:1;fill-rule:evenodd;stroke:#000000;stroke-width:1pt;stroke-opacity:1"
         transform="matrix(-0.4,0,0,-0.4,-4,0)" />
    </marker>
    <marker
       inkscape:stockid="StopL"
       orient="auto"
       refY="0"
       refX="0"
       id="StopL-5"
       style="overflow:visible"
       inkscape:isstock="true">
      <path
         id="path1130-8"
         d="M 0,5.65 V -5.65"
         style="fill:none;fill-opacity:0.75;fill-rule:evenodd;stroke:#000000;stroke-width:1pt;stroke-opacity:1"
         transform="scale(0.8)" />
    </marker>
    <marker
       inkscape:stockid="Arrow1Mend"
       orient="auto"
       refY="0"
       refX="0"
       id="Arrow1Mend-7"
       style="overflow:visible"
       inkscape:isstock="true">
      <path
         id="path970-9"
         d="M 0,0 5,-5 -12.5,0 5,5 Z"
         style="fill:#000000;fill-opacity:1;fill-rule:evenodd;stroke:#000000;stroke-width:1pt;stroke-opacity:1"
         transform="matrix(-0.4,0,0,-0.4,-4,0)" />
    </marker>
    <marker
       inkscape:isstock="true"
       style="overflow:visible"
       id="Arrow1Mend-9-5"
       refX="0"
       refY="0"
       orient="auto"
       inkscape:stockid="Arrow1Mend">
      <path
         transform="matrix(-0.4,0,0,-0.4,-4,0)"
         style="fill:#000000;fill-opacity:1;fill-rule:evenodd;stroke:#000000;stroke-width:1pt;stroke-opacity:1"
         d="M 0,0 5,-5 -12.5,0 5,5 Z"
         id="path970-5-2" />
    </marker>
  </defs>
  <sodipodi:namedview
     fit-margin-bottom="0"
     fit-margin-right="0"
     fit-margin-left="0"
     fit-margin-top="0"
     inkscape:window-maximized="0"
     inkscape:window-y="91"
     inkscape:window-x="2013"
     inkscape:window-height="815"
     inkscape:window-width="1794"
     showgrid="false"
     inkscape:document-rotation="0"
     inkscape:current-layer="layer1"
     inkscape:document-units="mm"
     inkscape:cy="170.69826"
     inkscape:cx="248.31997"
     inkscape:zoom="0.9899495"
     inkscape:pageshadow="2"
     inkscape:pageopacity="0.0"
     borderopacity="1.0"
     bordercolor="#666666"
     pagecolor="#ffffff"
     id="base" />
  <metadata
     id="metadata5">
    <rdf:RDF>
      <cc:Work
         rdf:about="">
        <dc:format>image/svg+xml</dc:format>
        <dc:type
           rdf:resource="http://purl.org/dc/dcmitype/StillImage" />
        <dc:title></dc:title>
      </cc:Work>
    </rdf:RDF>
  </metadata>
  <g
     transform="translate(-7.3485617,-34.537182)"
     id="layer1"
     inkscape:groupmode="layer"
     inkscape:label="Шар 1">
    <rect
       y="34.749901"
       x="7.5612803"
       height="58.217003"
       width="139.71045"
       id="rect2564"
       style="fill:#ffffff;fill-opacity:1;stroke:none;stroke-width:0.425437;stroke-linecap:square;stroke-linejoin:bevel;stroke-miterlimit:4;stroke-dasharray:1.2763, 1.27629999999999999;stroke-dashoffset:0;stroke-opacity:1;paint-order:stroke fill markers" />
    <g
       transform="matrix(0.945856,0,0,0.945856,44.743618,45.451707)"
       ns9:version="1.1.0"
       ns9:texconverter="pdflatex"
       ns9:pdfconverter="inkscape"
       ns9:text="$SXAIEK_aK_i$"
       ns9:preamble="C:\\Users\\User\\AppData\\Roaming\\inkscape\\extensions\\textext\\default_packages.tex"
       ns9:scale="2.681163638757389"
       ns9:alignment="middle center"
       ns9:jacobian_sqrt="0.945856"
       id="g905">
      <defs
         id="id-b6d3533b-dd94-4761-8ba7-7893fdd258d6">
        <g
           id="id-46879497-5f2b-4364-a17e-dfe94613ecc9">
          <symbol
             id="id-5b7802b4-dbbe-44a0-bc9b-3dc6a0e65e3a"
             overflow="visible">
            <path
               id="id-f39c17c2-a406-4e35-ad6f-abff636901c9"
               d=""
               style="stroke:none" />
          </symbol>
          <symbol
             id="id-c18d50f4-c742-46df-8bb2-842c34f3348d"
             overflow="visible">
            <path
               id="id-1b551266-9c1a-4335-bdbb-f9b22ef14c9c"
               d="m 6.4375,-6.921875 c 0,-0.03125 -0.03125,-0.109375 -0.125,-0.109375 -0.046875,0 -0.046875,0.015625 -0.171875,0.15625 L 5.65625,-6.3125 c -0.25,-0.46875 -0.765625,-0.71875 -1.421875,-0.71875 -1.265625,0 -2.453125,1.15625 -2.453125,2.359375 0,0.796875 0.515625,1.265625 1.03125,1.40625 l 1.0625,0.28125 c 0.375,0.09375 0.921875,0.25 0.921875,1.0625 0,0.890625 -0.8125,1.828125 -1.796875,1.828125 -0.640625,0 -1.75,-0.21875 -1.75,-1.453125 0,-0.234375 0.0625,-0.484375 0.0625,-0.53125 0.015625,-0.046875 0.015625,-0.0625 0.015625,-0.078125 0,-0.09375 -0.0625,-0.109375 -0.109375,-0.109375 -0.046875,0 -0.078125,0.015625 -0.109375,0.046875 -0.03125,0.03125 -0.59375,2.3125 -0.59375,2.34375 0,0.046875 0.046875,0.09375 0.109375,0.09375 0.046875,0 0.0625,-0.015625 0.1875,-0.15625 L 1.296875,-0.5 c 0.421875,0.578125 1.109375,0.71875 1.6875,0.71875 1.359375,0 2.53125,-1.328125 2.53125,-2.5625 0,-0.6875 -0.34375,-1.03125 -0.484375,-1.171875 C 4.796875,-3.734375 4.640625,-3.78125 3.765625,-4 3.53125,-4.0625 3.1875,-4.171875 3.09375,-4.1875 2.828125,-4.28125 2.484375,-4.5625 2.484375,-5.09375 c 0,-0.8125 0.796875,-1.65625 1.75,-1.65625 0.8125,0 1.421875,0.4375 1.421875,1.546875 0,0.3125 -0.03125,0.5 -0.03125,0.5625 0,0 0,0.09375 0.109375,0.09375 0.109375,0 0.125,-0.03125 0.15625,-0.203125 z m 0,0"
               style="stroke:none" />
          </symbol>
          <symbol
             id="id-19fddc05-4678-4986-952e-12088d4436ce"
             overflow="visible">
            <path
               id="id-ac170d3c-57d0-4c64-a973-1089cbe27830"
               d="M 4.828125,-4.09375 4,-6.078125 c -0.03125,-0.078125 -0.046875,-0.125 -0.046875,-0.125 0,-0.0625 0.15625,-0.25 0.578125,-0.296875 0.109375,-0.015625 0.203125,-0.015625 0.203125,-0.1875 0,-0.125 -0.125,-0.125 -0.15625,-0.125 -0.40625,0 -0.828125,0.03125 -1.25,0.03125 -0.25,0 -0.859375,-0.03125 -1.109375,-0.03125 -0.0625,0 -0.1875,0 -0.1875,0.203125 C 2.03125,-6.5 2.140625,-6.5 2.265625,-6.5 c 0.59375,0 0.65625,0.09375 0.75,0.3125 l 1.171875,2.78125 -2.109375,2.265625 -0.125,0.109375 C 1.46875,-0.5 1,-0.34375 0.484375,-0.3125 c -0.125,0.015625 -0.21875,0.015625 -0.21875,0.203125 0,0.015625 0,0.109375 0.140625,0.109375 0.296875,0 0.625,-0.03125 0.921875,-0.03125 C 1.703125,-0.03125 2.09375,0 2.453125,0 2.515625,0 2.625,0 2.625,-0.203125 2.625,-0.296875 2.53125,-0.3125 2.515625,-0.3125 c -0.09375,0 -0.40625,-0.03125 -0.40625,-0.3125 0,-0.15625 0.15625,-0.3125 0.265625,-0.4375 L 3.40625,-2.140625 4.296875,-3.125 l 1,2.390625 c 0.046875,0.109375 0.0625,0.109375 0.0625,0.140625 0,0.078125 -0.203125,0.25 -0.578125,0.28125 C 4.671875,-0.296875 4.578125,-0.296875 4.578125,-0.125 4.578125,0 4.6875,0 4.71875,0 5,0 5.703125,-0.03125 5.984375,-0.03125 6.234375,-0.03125 6.84375,0 7.09375,0 c 0.0625,0 0.1875,0 0.1875,-0.1875 0,-0.125 -0.109375,-0.125 -0.1875,-0.125 -0.65625,0 -0.6875,-0.03125 -0.859375,-0.4375 C 5.859375,-1.671875 5.1875,-3.234375 4.953125,-3.828125 5.625,-4.53125 6.671875,-5.71875 7,-5.984375 7.28125,-6.234375 7.671875,-6.46875 8.265625,-6.5 c 0.125,-0.015625 0.21875,-0.015625 0.21875,-0.203125 0,0 0,-0.109375 -0.125,-0.109375 -0.296875,0 -0.640625,0.03125 -0.9375,0.03125 -0.375,0 -0.75,-0.03125 -1.109375,-0.03125 -0.0625,0 -0.1875,0 -0.1875,0.203125 0,0.0625 0.046875,0.09375 0.109375,0.109375 0.09375,0.015625 0.40625,0.03125 0.40625,0.3125 0,0.140625 -0.109375,0.265625 -0.1875,0.359375 z m 0,0"
               style="stroke:none" />
          </symbol>
          <symbol
             id="id-7de773d4-5c24-4844-b6d4-c0c82a87b6c8"
             overflow="visible">
            <path
               id="id-a7d0cd72-6978-46c3-9e15-b1bd7af9f891"
               d="M 1.78125,-1.140625 C 1.390625,-0.484375 1,-0.34375 0.5625,-0.3125 0.4375,-0.296875 0.34375,-0.296875 0.34375,-0.109375 0.34375,-0.046875 0.40625,0 0.484375,0 0.75,0 1.0625,-0.03125 1.328125,-0.03125 c 0.34375,0 0.6875,0.03125 1,0.03125 0.0625,0 0.1875,0 0.1875,-0.1875 0,-0.109375 -0.078125,-0.125 -0.15625,-0.125 -0.21875,-0.015625 -0.46875,-0.09375 -0.46875,-0.34375 0,-0.125 0.0625,-0.234375 0.140625,-0.375 l 0.765625,-1.265625 h 2.5 c 0.015625,0.203125 0.15625,1.5625 0.15625,1.65625 0,0.296875 -0.515625,0.328125 -0.71875,0.328125 C 4.59375,-0.3125 4.5,-0.3125 4.5,-0.109375 4.5,0 4.609375,0 4.640625,0 5.046875,0 5.46875,-0.03125 5.875,-0.03125 6.125,-0.03125 6.765625,0 7.015625,0 7.0625,0 7.1875,0 7.1875,-0.203125 7.1875,-0.3125 7.09375,-0.3125 6.953125,-0.3125 6.34375,-0.3125 6.34375,-0.375 6.3125,-0.671875 l -0.609375,-6.21875 c -0.015625,-0.203125 -0.015625,-0.25 -0.1875,-0.25 -0.15625,0 -0.203125,0.078125 -0.265625,0.171875 z M 2.984375,-2.609375 4.9375,-5.90625 5.265625,-2.609375 Z m 0,0"
               style="stroke:none" />
          </symbol>
          <symbol
             id="id-dc1d9ffa-63d7-44d6-aea8-316584846eb2"
             overflow="visible">
            <path
               id="id-68189253-ea94-47e7-b337-db3b3b064795"
               d="M 3.734375,-6.046875 C 3.8125,-6.40625 3.84375,-6.5 4.640625,-6.5 c 0.234375,0 0.3125,0 0.3125,-0.1875 0,-0.125 -0.109375,-0.125 -0.140625,-0.125 -0.296875,0 -1.03125,0.03125 -1.328125,0.03125 -0.296875,0 -1.015625,-0.03125 -1.328125,-0.03125 -0.0625,0 -0.1875,0 -0.1875,0.203125 C 1.96875,-6.5 2.046875,-6.5 2.25,-6.5 c 0.40625,0 0.6875,0 0.6875,0.1875 0,0.046875 0,0.078125 -0.03125,0.15625 l -1.34375,5.375 c -0.09375,0.375 -0.109375,0.46875 -0.90625,0.46875 -0.234375,0 -0.3125,0 -0.3125,0.203125 C 0.34375,0 0.453125,0 0.484375,0 0.78125,0 1.5,-0.03125 1.796875,-0.03125 2.09375,-0.03125 2.828125,0 3.125,0 c 0.078125,0 0.203125,0 0.203125,-0.1875 0,-0.125 -0.078125,-0.125 -0.296875,-0.125 -0.1875,0 -0.234375,0 -0.421875,-0.015625 -0.21875,-0.015625 -0.25,-0.0625 -0.25,-0.171875 0,-0.078125 0.015625,-0.15625 0.03125,-0.234375 z m 0,0"
               style="stroke:none" />
          </symbol>
          <symbol
             id="id-60187520-7e60-4387-a936-58cfeec8e633"
             overflow="visible">
            <path
               id="id-2cf04caf-82cf-4802-ab3a-6bf45dcea849"
               d="M 7.0625,-2.328125 C 7.078125,-2.375 7.109375,-2.4375 7.109375,-2.46875 c 0,0 0,-0.109375 -0.125,-0.109375 -0.09375,0 -0.109375,0.0625 -0.125,0.125 C 6.203125,-0.984375 5.84375,-0.3125 4.140625,-0.3125 H 2.6875 c -0.140625,0 -0.171875,0 -0.21875,0 -0.109375,-0.015625 -0.140625,-0.03125 -0.140625,-0.109375 0,-0.03125 0,-0.046875 0.046875,-0.21875 L 3.0625,-3.375 h 0.984375 c 0.84375,0 0.84375,0.21875 0.84375,0.46875 0,0.0625 0,0.1875 -0.0625,0.484375 C 4.8125,-2.375 4.796875,-2.34375 4.796875,-2.3125 c 0,0.046875 0.03125,0.109375 0.125,0.109375 C 5,-2.203125 5.03125,-2.25 5.078125,-2.40625 l 0.5625,-2.328125 c 0,-0.0625 -0.046875,-0.109375 -0.125,-0.109375 -0.078125,0 -0.109375,0.0625 -0.125,0.171875 -0.21875,0.765625 -0.390625,1 -1.3125,1 h -0.9375 l 0.59375,-2.40625 C 3.828125,-6.4375 3.84375,-6.46875 4.28125,-6.46875 H 5.6875 c 1.203125,0 1.515625,0.28125 1.515625,1.109375 0,0.234375 0,0.25 -0.046875,0.53125 0,0.046875 -0.015625,0.125 -0.015625,0.171875 0,0.046875 0.03125,0.125 0.125,0.125 0.109375,0 0.125,-0.0625 0.140625,-0.25 L 7.609375,-6.515625 C 7.640625,-6.78125 7.59375,-6.78125 7.34375,-6.78125 H 2.296875 c -0.1875,0 -0.296875,0 -0.296875,0.203125 0,0.109375 0.09375,0.109375 0.28125,0.109375 0.375,0 0.65625,0 0.65625,0.171875 0,0.046875 0,0.0625 -0.0625,0.25 L 1.5625,-0.78125 c -0.09375,0.390625 -0.109375,0.46875 -0.90625,0.46875 -0.171875,0 -0.28125,0 -0.28125,0.1875 C 0.375,0 0.46875,0 0.65625,0 h 5.171875 c 0.234375,0 0.25,-0.015625 0.3125,-0.171875 z m 0,0"
               style="stroke:none" />
          </symbol>
          <symbol
             id="id-0e328ca0-7122-4a9b-9060-596c3c3044d8"
             overflow="visible">
            <path
               id="id-1b90836d-12c3-4b6c-b8eb-422f146c51ca"
               d="M 5.078125,-4.03125 C 5.0625,-4.0625 5.03125,-4.140625 5.03125,-4.171875 c 0,0 0.171875,-0.140625 0.28125,-0.21875 l 1.75,-1.34375 C 8,-6.4375 8.390625,-6.46875 8.6875,-6.5 8.765625,-6.515625 8.859375,-6.515625 8.859375,-6.703125 8.859375,-6.734375 8.828125,-6.8125 8.75,-6.8125 c -0.21875,0 -0.46875,0.03125 -0.703125,0.03125 -0.359375,0 -0.75,-0.03125 -1.109375,-0.03125 -0.0625,0 -0.1875,0 -0.1875,0.203125 0,0.0625 0.046875,0.09375 0.125,0.109375 0.21875,0.015625 0.296875,0.0625 0.296875,0.203125 0,0.1875 -0.296875,0.421875 -0.359375,0.46875 L 2.9375,-2.84375 3.734375,-6.046875 C 3.8125,-6.40625 3.84375,-6.5 4.5625,-6.5 c 0.25,0 0.34375,0 0.34375,-0.203125 0,-0.078125 -0.078125,-0.109375 -0.140625,-0.109375 -0.28125,0 -1,0.03125 -1.28125,0.03125 C 3.203125,-6.78125 2.5,-6.8125 2.203125,-6.8125 2.140625,-6.8125 2,-6.8125 2,-6.625 2,-6.5 2.09375,-6.5 2.296875,-6.5 c 0.125,0 0.3125,0.015625 0.421875,0.015625 0.15625,0.03125 0.21875,0.046875 0.21875,0.171875 0,0.03125 0,0.0625 -0.03125,0.1875 L 1.5625,-0.78125 c -0.09375,0.390625 -0.109375,0.46875 -0.90625,0.46875 -0.171875,0 -0.28125,0 -0.28125,0.1875 C 0.375,0 0.5,0 0.53125,0 0.8125,0 1.515625,-0.03125 1.796875,-0.03125 2,-0.03125 2.21875,-0.015625 2.4375,-0.015625 2.65625,-0.015625 2.875,0 3.078125,0 3.15625,0 3.28125,0 3.28125,-0.203125 3.28125,-0.3125 3.1875,-0.3125 3,-0.3125 c -0.375,0 -0.640625,0 -0.640625,-0.171875 0,-0.078125 0.046875,-0.296875 0.078125,-0.4375 C 2.578125,-1.453125 2.71875,-1.96875 2.84375,-2.5 l 1.484375,-1.15625 1.15625,2.6875 c 0.125,0.265625 0.125,0.296875 0.125,0.34375 0,0.3125 -0.4375,0.3125 -0.53125,0.3125 -0.109375,0 -0.21875,0 -0.21875,0.203125 C 4.859375,0 4.984375,0 5,0 5.40625,0 5.828125,-0.03125 6.21875,-0.03125 6.4375,-0.03125 6.984375,0 7.203125,0 7.25,0 7.375,0 7.375,-0.203125 7.375,-0.3125 7.265625,-0.3125 7.171875,-0.3125 c -0.40625,0 -0.53125,-0.09375 -0.6875,-0.4375 z m 0,0"
               style="stroke:none" />
          </symbol>
          <symbol
             id="id-b4c1cbe7-82b8-4307-a372-b99f732943a0"
             overflow="visible">
            <path
               id="id-b4daf7bf-aa5a-4622-8bb2-016f71b8796b"
               d=""
               style="stroke:none" />
          </symbol>
          <symbol
             id="id-52f07e0c-b44d-4ade-8e98-2932dad12670"
             overflow="visible">
            <path
               id="id-a6d13358-b07a-4403-8c43-d384b7cff783"
               d="m 2.9375,-2.65625 c -0.140625,-0.234375 -0.375,-0.421875 -0.71875,-0.421875 -0.890625,0 -1.796875,0.984375 -1.796875,1.984375 0,0.6875 0.453125,1.15625 1.0625,1.15625 0.375,0 0.703125,-0.203125 0.984375,-0.484375 C 2.59375,0 3,0.0625 3.1875,0.0625 c 0.25,0 0.421875,-0.140625 0.546875,-0.359375 0.15625,-0.28125 0.25,-0.671875 0.25,-0.703125 0,-0.09375 -0.09375,-0.09375 -0.109375,-0.09375 -0.109375,0 -0.109375,0.03125 -0.15625,0.21875 C 3.625,-0.53125 3.5,-0.125 3.203125,-0.125 3.03125,-0.125 2.96875,-0.28125 2.96875,-0.46875 c 0,-0.109375 0.0625,-0.375 0.109375,-0.546875 0.046875,-0.1875 0.125,-0.46875 0.15625,-0.625 L 3.375,-2.171875 C 3.421875,-2.359375 3.5,-2.6875 3.5,-2.71875 3.5,-2.875 3.375,-2.9375 3.265625,-2.9375 c -0.125,0 -0.28125,0.078125 -0.328125,0.28125 z M 2.5,-0.875 C 2.453125,-0.671875 2.296875,-0.53125 2.140625,-0.40625 2.078125,-0.34375 1.796875,-0.125 1.5,-0.125 c -0.265625,0 -0.515625,-0.1875 -0.515625,-0.671875 0,-0.375 0.203125,-1.140625 0.375,-1.421875 0.3125,-0.5625 0.671875,-0.65625 0.859375,-0.65625 0.484375,0 0.625,0.53125 0.625,0.609375 0,0.015625 -0.015625,0.078125 -0.015625,0.09375 z m 0,0"
               style="stroke:none" />
          </symbol>
          <symbol
             id="id-935fee90-c75d-4458-ba04-1b558bc5d8b4"
             overflow="visible">
            <path
               id="id-eb22b656-8739-43c2-951d-56890ccf1a04"
               d="m 2.265625,-4.359375 c 0,-0.109375 -0.09375,-0.265625 -0.28125,-0.265625 -0.1875,0 -0.390625,0.1875 -0.390625,0.390625 0,0.109375 0.078125,0.265625 0.28125,0.265625 0.1875,0 0.390625,-0.203125 0.390625,-0.390625 z M 0.84375,-0.8125 c -0.03125,0.09375 -0.0625,0.171875 -0.0625,0.296875 0,0.328125 0.265625,0.578125 0.65625,0.578125 0.6875,0 1,-0.953125 1,-1.0625 0,-0.09375 -0.09375,-0.09375 -0.109375,-0.09375 -0.09375,0 -0.109375,0.046875 -0.140625,0.125 -0.15625,0.5625 -0.453125,0.84375 -0.734375,0.84375 -0.140625,0 -0.171875,-0.09375 -0.171875,-0.25 0,-0.15625 0.046875,-0.28125 0.109375,-0.4375 C 1.46875,-1 1.546875,-1.1875 1.609375,-1.375 1.671875,-1.546875 1.9375,-2.171875 1.953125,-2.265625 1.984375,-2.328125 2,-2.40625 2,-2.484375 2,-2.8125 1.71875,-3.078125 1.34375,-3.078125 0.640625,-3.078125 0.328125,-2.125 0.328125,-2 c 0,0.078125 0.09375,0.078125 0.125,0.078125 0.09375,0 0.09375,-0.03125 0.125,-0.109375 C 0.75,-2.625 1.0625,-2.875 1.3125,-2.875 c 0.109375,0 0.171875,0.046875 0.171875,0.234375 0,0.171875 -0.03125,0.265625 -0.203125,0.703125 z m 0,0"
               style="stroke:none" />
          </symbol>
        </g>
      </defs>
      <g
         transform="translate(-149.228,-127.624)"
         id="id-e1d539ad-252f-424a-85c6-ce39d4d1d388">
        <rect
           y="165.73132"
           x="177.55363"
           height="11.609716"
           width="12.528065"
           id="rect1328"
           style="fill:none;fill-opacity:1;stroke:#000000;stroke-width:0.447566;stroke-linecap:square;stroke-linejoin:bevel;stroke-miterlimit:4;stroke-dasharray:none;stroke-dashoffset:0;stroke-opacity:1;paint-order:stroke fill markers" />
        <g
           transform="translate(2.4606652,29.57135)"
           id="id-2aa181b0-4c14-4554-9b11-cb76cf0b6639"
           style="fill:#000000;fill-opacity:1">
          <g
             transform="translate(177.069,134.765)"
             id="g885" />
        </g>
        <path
           id="path959"
           d="m 160.24251,144.24737 h 46.45278"
           style="fill:none;stroke:#000000;stroke-width:0.636132;stroke-linecap:butt;stroke-linejoin:miter;stroke-miterlimit:4;stroke-dasharray:none;stroke-opacity:1;marker-end:url(#Arrow1Mend)" />
        <path
           style="fill:none;stroke:#000000;stroke-width:0.460217;stroke-linecap:butt;stroke-linejoin:miter;stroke-miterlimit:4;stroke-dasharray:none;stroke-dashoffset:0;stroke-opacity:1;marker-end:url(#Arrow1Mend-9)"
           d="M 183.74318,165.03823 V 151.14022"
           id="path959-3" />
        <g
           style="fill:#000000;fill-opacity:1"
           id="id-1f6a40ac-151f-4dba-ae69-cdcd4dcb2847"
           transform="matrix(0.68595711,0,0,0.68595711,61.286305,65.038533)">
          <g
             id="g897"
             transform="translate(198.274,134.765)" />
        </g>
        <g
           style="fill:#000000;fill-opacity:1"
           id="id-0ba29cee-d3ea-4f2b-976a-272a6091c0a7"
           transform="matrix(0.68595711,0,0,0.68595711,61.286305,65.038533)">
          <g
             id="g901"
             transform="translate(206.735,136.259)" />
        </g>
        <path
           style="fill:none;stroke:#000000;stroke-width:0.636132;stroke-linecap:butt;stroke-linejoin:miter;stroke-miterlimit:4;stroke-dasharray:none;stroke-opacity:1;marker-end:url(#Arrow1Mend-7)"
           d="M 207.13421,149.59227 H 160.68143"
           id="path959-2" />
        <rect
           style="fill:none;fill-opacity:1;stroke:#000000;stroke-width:0.447566;stroke-linecap:square;stroke-linejoin:bevel;stroke-miterlimit:4;stroke-dasharray:none;stroke-dashoffset:0;stroke-opacity:1;paint-order:stroke fill markers"
           id="rect1328-1"
           width="12.528065"
           height="11.609716"
           x="209.13586"
           y="140.84035" />
        <rect
           y="140.84035"
           x="145.35703"
           height="11.609716"
           width="12.528065"
           id="rect1328-1-0"
           style="fill:none;fill-opacity:1;stroke:#000000;stroke-width:0.447566;stroke-linecap:square;stroke-linejoin:bevel;stroke-miterlimit:4;stroke-dasharray:none;stroke-dashoffset:0;stroke-opacity:1;paint-order:stroke fill markers" />
        <path
           id="path959-3-1"
           d="m 183.79354,129.04474 v 13.81033"
           style="fill:none;stroke:#000000;stroke-width:0.458764;stroke-linecap:butt;stroke-linejoin:miter;stroke-miterlimit:4;stroke-dasharray:none;stroke-dashoffset:0;stroke-opacity:1;marker-end:url(#Arrow1Mend-9-5)" />
        <rect
           style="fill:none;fill-opacity:1;stroke:#000000;stroke-width:0.447566;stroke-linecap:square;stroke-linejoin:bevel;stroke-miterlimit:4;stroke-dasharray:none;stroke-dashoffset:0;stroke-opacity:1;paint-order:stroke fill markers"
           id="rect1328-0"
           width="12.528065"
           height="11.609716"
           x="177.5491"
           y="116.83269" />
      </g>
    </g>
    <g
       transform="matrix(0.635957,0,0,0.635957,67.091396,25.1327)"
       ns9:version="1.1.0"
       ns9:texconverter="pdflatex"
       ns9:pdfconverter="inkscape"
       ns9:text="$WW^*PK$"
       ns9:preamble="C:\\Users\\User\\AppData\\Roaming\\inkscape\\extensions\\textext\\default_packages.tex"
       ns9:scale="1.8027119175543893"
       ns9:alignment="middle center"
       ns9:inkscapeversion="1.0"
       ns9:jacobian_sqrt="0.635957"
       id="g1600">
      <defs
         id="id-8dc3194f-b47a-41af-84b4-2462fd7a59e7">
        <g
           id="id-db726b04-65ed-4189-84e0-fafb6b8a3c9e">
          <symbol
             id="id-02d0a785-d8db-4c77-a9ab-f4a0b5965deb"
             overflow="visible">
            <path
               id="id-6c042544-c0b9-498c-ab3e-7bd48878df69"
               d=""
               style="stroke:none" />
          </symbol>
          <symbol
             id="id-1e7ebcc2-cc51-4570-adde-4e3caa658838"
             overflow="visible">
            <path
               id="id-7b0acb3b-d7a2-40d9-b035-d85fa4e086b1"
               d="m 9.140625,-5.65625 c 0.25,-0.4375 0.484375,-0.796875 1.125,-0.84375 0.07813,-0.015625 0.1875,-0.015625 0.1875,-0.203125 0,-0.03125 -0.04687,-0.109375 -0.125,-0.109375 -0.234375,0 -0.515625,0.03125 -0.765625,0.03125 -0.34375,0 -0.703125,-0.03125 -1.046875,-0.03125 -0.046875,0 -0.1875,0 -0.1875,0.1875 0,0.109375 0.09375,0.125 0.15625,0.125 0.234375,0.015625 0.59375,0.09375 0.59375,0.390625 0,0.109375 -0.0625,0.1875 -0.140625,0.328125 L 6.25,-1.09375 5.875,-6.03125 c 0,-0.203125 -0.015625,-0.453125 0.703125,-0.46875 0.171875,0 0.265625,0 0.265625,-0.203125 0,-0.09375 -0.109375,-0.109375 -0.140625,-0.109375 -0.40625,0 -0.828125,0.03125 -1.21875,0.03125 -0.234375,0 -0.8125,-0.03125 -1.046875,-0.03125 -0.0625,0 -0.1875,0 -0.1875,0.203125 C 4.25,-6.5 4.34375,-6.5 4.484375,-6.5 4.921875,-6.5 5,-6.4375 5.015625,-6.25 l 0.0625,0.765625 -2.53125,4.390625 -0.375,-5.046875 c 0,-0.125 0,-0.34375 0.765625,-0.359375 0.09375,0 0.203125,0 0.203125,-0.203125 C 3.140625,-6.8125 3.015625,-6.8125 3,-6.8125 c -0.390625,0 -0.8125,0.03125 -1.21875,0.03125 -0.359375,0 -0.71875,-0.03125 -1.046875,-0.03125 -0.0625,0 -0.1875,0 -0.1875,0.1875 0,0.125 0.09375,0.125 0.25,0.125 0.5,0 0.515625,0.09375 0.53125,0.375 l 0.453125,6.078125 c 0,0.1875 0.015625,0.265625 0.15625,0.265625 0.109375,0 0.140625,-0.0625 0.234375,-0.203125 l 2.9375,-5.09375 0.359375,5.03125 C 5.5,0.171875 5.515625,0.21875 5.625,0.21875 c 0.140625,0 0.203125,-0.09375 0.25,-0.1875 z m 0,0"
               style="stroke:none" />
          </symbol>
          <symbol
             id="id-c978cb12-0520-42a7-9e4e-cfdf33677855"
             overflow="visible">
            <path
               id="id-c862f9cf-8685-46f1-bf83-0336ef03e3db"
               d="M 3.015625,-3.15625 H 4.71875 c 1.40625,0 2.796875,-1.03125 2.796875,-2.140625 0,-0.78125 -0.65625,-1.515625 -1.96875,-1.515625 h -3.21875 c -0.1875,0 -0.296875,0 -0.296875,0.1875 0,0.125 0.078125,0.125 0.28125,0.125 0.125,0 0.3125,0.015625 0.421875,0.015625 0.171875,0.03125 0.21875,0.046875 0.21875,0.171875 0,0.03125 0,0.0625 -0.03125,0.1875 l -1.34375,5.34375 c -0.09375,0.390625 -0.109375,0.46875 -0.90625,0.46875 -0.15625,0 -0.265625,0 -0.265625,0.1875 C 0.40625,0 0.515625,0 0.546875,0 0.828125,0 1.53125,-0.03125 1.8125,-0.03125 c 0.21875,0 0.4375,0.015625 0.640625,0.015625 0.21875,0 0.4375,0.015625 0.640625,0.015625 0.078125,0 0.203125,0 0.203125,-0.203125 0,-0.109375 -0.09375,-0.109375 -0.28125,-0.109375 -0.359375,0 -0.640625,0 -0.640625,-0.171875 0,-0.0625 0.015625,-0.109375 0.03125,-0.171875 z M 3.734375,-6.125 C 3.828125,-6.46875 3.84375,-6.5 4.28125,-6.5 h 0.953125 c 0.828125,0 1.359375,0.265625 1.359375,0.953125 0,0.390625 -0.203125,1.25 -0.59375,1.609375 -0.5,0.453125 -1.09375,0.53125 -1.53125,0.53125 H 3.0625 Z m 0,0"
               style="stroke:none" />
          </symbol>
          <symbol
             id="id-07186980-4799-4abd-8c6d-f9e1e236d795"
             overflow="visible">
            <path
               id="id-165666cd-d280-42f2-ae58-311c1d51cb67"
               d="M 5.078125,-4.03125 C 5.0625,-4.0625 5.03125,-4.140625 5.03125,-4.171875 c 0,0 0.171875,-0.140625 0.28125,-0.21875 l 1.75,-1.34375 C 8,-6.4375 8.390625,-6.46875 8.6875,-6.5 8.765625,-6.515625 8.859375,-6.515625 8.859375,-6.703125 8.859375,-6.734375 8.828125,-6.8125 8.75,-6.8125 c -0.21875,0 -0.46875,0.03125 -0.703125,0.03125 -0.359375,0 -0.75,-0.03125 -1.109375,-0.03125 -0.0625,0 -0.1875,0 -0.1875,0.203125 0,0.0625 0.046875,0.09375 0.125,0.109375 0.21875,0.015625 0.296875,0.0625 0.296875,0.203125 0,0.1875 -0.296875,0.421875 -0.359375,0.46875 L 2.9375,-2.84375 3.734375,-6.046875 C 3.8125,-6.40625 3.84375,-6.5 4.5625,-6.5 c 0.25,0 0.34375,0 0.34375,-0.203125 0,-0.078125 -0.078125,-0.109375 -0.140625,-0.109375 -0.28125,0 -1,0.03125 -1.28125,0.03125 C 3.203125,-6.78125 2.5,-6.8125 2.203125,-6.8125 2.140625,-6.8125 2,-6.8125 2,-6.625 2,-6.5 2.09375,-6.5 2.296875,-6.5 c 0.125,0 0.3125,0.015625 0.421875,0.015625 0.15625,0.03125 0.21875,0.046875 0.21875,0.171875 0,0.03125 0,0.0625 -0.03125,0.1875 L 1.5625,-0.78125 c -0.09375,0.390625 -0.109375,0.46875 -0.90625,0.46875 -0.171875,0 -0.28125,0 -0.28125,0.1875 C 0.375,0 0.5,0 0.53125,0 0.8125,0 1.515625,-0.03125 1.796875,-0.03125 2,-0.03125 2.21875,-0.015625 2.4375,-0.015625 2.65625,-0.015625 2.875,0 3.078125,0 3.15625,0 3.28125,0 3.28125,-0.203125 3.28125,-0.3125 3.1875,-0.3125 3,-0.3125 c -0.375,0 -0.640625,0 -0.640625,-0.171875 0,-0.078125 0.046875,-0.296875 0.078125,-0.4375 C 2.578125,-1.453125 2.71875,-1.96875 2.84375,-2.5 l 1.484375,-1.15625 1.15625,2.6875 c 0.125,0.265625 0.125,0.296875 0.125,0.34375 0,0.3125 -0.4375,0.3125 -0.53125,0.3125 -0.109375,0 -0.21875,0 -0.21875,0.203125 C 4.859375,0 4.984375,0 5,0 5.40625,0 5.828125,-0.03125 6.21875,-0.03125 6.4375,-0.03125 6.984375,0 7.203125,0 7.25,0 7.375,0 7.375,-0.203125 7.375,-0.3125 7.265625,-0.3125 7.171875,-0.3125 c -0.40625,0 -0.53125,-0.09375 -0.6875,-0.4375 z m 0,0"
               style="stroke:none" />
          </symbol>
          <symbol
             id="id-35f0d961-1ae2-448a-9801-cee9ca11c9ff"
             overflow="visible">
            <path
               id="id-fb6cc290-a233-49a7-94ad-02647ee54eea"
               d=""
               style="stroke:none" />
          </symbol>
          <symbol
             id="id-5ce155e4-982d-4f46-9b72-ebcddf3e9450"
             overflow="visible">
            <path
               id="id-8f894b04-3698-4bc5-9481-ee06aeb2529a"
               d="m 2.25,-1.734375 c 0.578125,-0.25 0.828125,-0.34375 1,-0.4375 0.140625,-0.046875 0.203125,-0.078125 0.203125,-0.21875 0,-0.109375 -0.09375,-0.21875 -0.21875,-0.21875 -0.046875,0 -0.0625,0 -0.140625,0.0625 L 2.140625,-1.90625 2.25,-2.9375 c 0.015625,-0.125 0,-0.296875 -0.21875,-0.296875 -0.078125,0 -0.21875,0.046875 -0.21875,0.203125 0,0.0625 0.03125,0.265625 0.046875,0.34375 0.015625,0.109375 0.0625,0.625 0.078125,0.78125 L 0.984375,-2.546875 c -0.0625,-0.03125 -0.078125,-0.0625 -0.140625,-0.0625 -0.140625,0 -0.21875,0.109375 -0.21875,0.21875 0,0.140625 0.078125,0.1875 0.140625,0.203125 L 1.8125,-1.734375 c -0.5625,0.25 -0.828125,0.34375 -1,0.421875 -0.125,0.0625 -0.1875,0.09375 -0.1875,0.21875 0,0.125 0.078125,0.21875 0.21875,0.21875 0.046875,0 0.0625,0 0.140625,-0.0625 l 0.953125,-0.625 -0.125,1.109375 c 0,0.15625 0.140625,0.21875 0.21875,0.21875 0.09375,0 0.21875,-0.0625 0.21875,-0.21875 0,-0.0625 -0.03125,-0.265625 -0.03125,-0.328125 -0.015625,-0.125 -0.0625,-0.625 -0.078125,-0.78125 L 2.96875,-1.015625 C 3.15625,-0.875 3.171875,-0.875 3.234375,-0.875 c 0.125,0 0.21875,-0.09375 0.21875,-0.21875 0,-0.140625 -0.09375,-0.171875 -0.15625,-0.203125 z m 0,0"
               style="stroke:none" />
          </symbol>
        </g>
      </defs>
      <g
         transform="matrix(1.251396,0,0,1.251396,-143.85164,-124.18848)"
         id="id-4bf07671-2fd9-4217-9257-bc228617d4c4">
        <g
           transform="translate(-62.502572,3.3246044)"
           id="id-32cc54b5-91ab-4716-8700-755cb08c9a68"
           style="fill:#000000;fill-opacity:1">
          <g
             transform="translate(148.712,134.765)"
             id="g1580">
            <path
               id="id-5890cd84-da94-442b-8c70-f60444acf8fe"
               d="m 7.8107832,6.977247 c 0.25,-0.4375 0.484375,-0.796875 1.125,-0.84375 0.07813,-0.015625 0.1875,-0.015625 0.1875,-0.203125 0,-0.03125 -0.04687,-0.109375 -0.125,-0.109375 -0.234375,0 -0.515625,0.03125 -0.765625,0.03125 -0.34375,0 -0.703125,-0.03125 -1.046875,-0.03125 -0.046875,0 -0.1875,0 -0.1875,0.1875 0,0.109375 0.09375,0.125 0.15625,0.125 0.234375,0.015625 0.59375,0.09375 0.59375,0.390625 0,0.109375 -0.0625,0.1875 -0.140625,0.328125 l -2.6875,4.6875 -0.375,-4.9375 c 0,-0.203125 -0.015625,-0.453125 0.703125,-0.46875 0.171875,0 0.265625,0 0.265625,-0.203125 0,-0.09375 -0.109375,-0.109375 -0.140625,-0.109375 -0.40625,0 -0.828125,0.03125 -1.21875,0.03125 -0.234375,0 -0.8125,-0.03125 -1.046875,-0.03125 -0.0625,0 -0.1875,0 -0.1875,0.203125 0,0.109375 0.09375,0.109375 0.234375,0.109375 0.4375,0 0.515625,0.0625 0.53125,0.25 l 0.0625,0.765625 -2.53125,4.390625 -0.37499997,-5.046875 c 0,-0.125 0,-0.34375 0.76562497,-0.359375 0.09375,0 0.203125,0 0.203125,-0.203125 0,-0.109375 -0.125,-0.109375 -0.140625,-0.109375 -0.390625,0 -0.81249997,0.03125 -1.21874997,0.03125 -0.35937497,0 -0.71874997,-0.03125 -1.04687497,-0.03125 -0.0625,0 -0.1875,0 -0.1875,0.1875 0,0.125 0.09375,0.125 0.25,0.125 0.5,0 0.515625,0.09375 0.53125,0.375 l 0.45312497,6.078125 c 0,0.1875 0.015625,0.265625 0.15625,0.265625 0.109375,0 0.140625,-0.0625 0.234375,-0.203125 l 2.93749997,-5.09375 0.359375,5.03125 c 0.03125,0.21875 0.046875,0.265625 0.15625,0.265625 0.140625,0 0.203125,-0.09375 0.25,-0.1875 z m 0,0"
               style="stroke:none" />
          </g>
        </g>
        <g
           transform="translate(0,3.3246044)"
           id="id-28c60583-8447-4158-9f4c-c89c8d131544"
           style="fill:#000000;fill-opacity:1">
          <g
             transform="translate(159.505,134.765)"
             id="g1584">
            <path
               id="id-c864456b-c702-4a8f-98b5-3b13ceafbe1a"
               d="m 7.8107832,6.977247 c 0.25,-0.4375 0.484375,-0.796875 1.125,-0.84375 0.07813,-0.015625 0.1875,-0.015625 0.1875,-0.203125 0,-0.03125 -0.04687,-0.109375 -0.125,-0.109375 -0.234375,0 -0.515625,0.03125 -0.765625,0.03125 -0.34375,0 -0.703125,-0.03125 -1.046875,-0.03125 -0.046875,0 -0.1875,0 -0.1875,0.1875 0,0.109375 0.09375,0.125 0.15625,0.125 0.234375,0.015625 0.59375,0.09375 0.59375,0.390625 0,0.109375 -0.0625,0.1875 -0.140625,0.328125 l -2.6875,4.6875 -0.375,-4.9375 c 0,-0.203125 -0.015625,-0.453125 0.703125,-0.46875 0.171875,0 0.265625,0 0.265625,-0.203125 0,-0.09375 -0.109375,-0.109375 -0.140625,-0.109375 -0.40625,0 -0.828125,0.03125 -1.21875,0.03125 -0.234375,0 -0.8125,-0.03125 -1.046875,-0.03125 -0.0625,0 -0.1875,0 -0.1875,0.203125 0,0.109375 0.09375,0.109375 0.234375,0.109375 0.4375,0 0.515625,0.0625 0.53125,0.25 l 0.0625,0.765625 -2.53125,4.390625 -0.37499997,-5.046875 c 0,-0.125 0,-0.34375 0.76562497,-0.359375 0.09375,0 0.203125,0 0.203125,-0.203125 0,-0.109375 -0.125,-0.109375 -0.140625,-0.109375 -0.390625,0 -0.81249997,0.03125 -1.21874997,0.03125 -0.35937497,0 -0.71874997,-0.03125 -1.04687497,-0.03125 -0.0625,0 -0.1875,0 -0.1875,0.1875 0,0.125 0.09375,0.125 0.25,0.125 0.5,0 0.515625,0.09375 0.53125,0.375 l 0.45312497,6.078125 c 0,0.1875 0.015625,0.265625 0.15625,0.265625 0.109375,0 0.140625,-0.0625 0.234375,-0.203125 l 2.93749997,-5.09375 0.359375,5.03125 c 0.03125,0.21875 0.046875,0.265625 0.15625,0.265625 0.140625,0 0.203125,-0.09375 0.25,-0.1875 z m 0,0"
               style="stroke:none" />
          </g>
        </g>
        <g
           transform="translate(0,3.3246044)"
           id="id-58c3e4c2-9442-4f11-bbb1-67de242d2111"
           style="fill:#000000;fill-opacity:1">
          <g
             transform="translate(170.298,131.15)"
             id="g1588">
            <path
               id="id-4b298d13-0883-446a-970e-5be576fcafa4"
               d="m 0.92015823,10.899122 c 0.57812497,-0.25 0.82812497,-0.34375 0.99999997,-0.4375 0.140625,-0.04687 0.203125,-0.07813 0.203125,-0.21875 0,-0.109375 -0.09375,-0.21875 -0.21875,-0.21875 -0.046875,0 -0.0625,0 -0.140625,0.0625 l -0.95312497,0.640625 0.109375,-1.03125 c 0.015625,-0.125 0,-0.296875 -0.21875,-0.296875 -0.078125,0 -0.21875,0.046875 -0.21875,0.203125 0,0.0625 0.03125,0.265625 0.046875,0.34375 0.015625,0.109375 0.0625,0.625 0.078125,0.78125 l -0.95312497,-0.640625 c -0.0625,-0.03125 -0.078125,-0.0625 -0.140625,-0.0625 -0.140625,0 -0.21875,0.109375 -0.21875,0.21875 0,0.140625 0.078125,0.1875 0.140625,0.203125 l 1.04687497,0.453125 c -0.56249997,0.25 -0.82812497,0.34375 -0.99999997,0.421875 -0.125,0.0625 -0.1875,0.09375 -0.1875,0.21875 0,0.125 0.078125,0.21875 0.21875,0.21875 0.046875,0 0.0625,0 0.140625,-0.0625 l 0.95312497,-0.625 -0.125,1.109375 c 0,0.15625 0.140625,0.21875 0.21875,0.21875 0.09375,0 0.21875,-0.0625 0.21875,-0.21875 0,-0.0625 -0.03125,-0.265625 -0.03125,-0.328125 -0.015625,-0.125 -0.0625,-0.625 -0.078125,-0.78125 l 0.82812497,0.546875 c 0.1875,0.140625 0.203125,0.140625 0.265625,0.140625 0.125,0 0.21875,-0.09375 0.21875,-0.21875 0,-0.140625 -0.09375,-0.171875 -0.15625,-0.203125 z m 0,0"
               style="stroke:none" />
          </g>
        </g>
        <g
           transform="translate(-50.874463,44.322805)"
           id="id-8c636b96-91b8-4c58-8d8d-a5155a2c4ae5"
           style="fill:#000000;fill-opacity:1">
          <g
             transform="translate(174.878,134.765)"
             id="g1592">
            <path
               id="id-35182344-903c-4b5e-9932-fa5b4f9999f3"
               d="M 3.015625,-1.8264082 H 4.71875 c 1.40625,0 2.796875,-1.03125 2.796875,-2.140625 0,-0.78125 -0.65625,-1.515625 -1.96875,-1.515625 h -3.21875 c -0.1875,0 -0.296875,0 -0.296875,0.1875 0,0.125 0.078125,0.125 0.28125,0.125 0.125,0 0.3125,0.015625 0.421875,0.015625 0.171875,0.03125 0.21875,0.046875 0.21875,0.171875 0,0.03125 0,0.0625 -0.03125,0.1875 l -1.34375,5.34374994 c -0.09375,0.390625 -0.109375,0.46874996 -0.90625,0.46874996 -0.15625,0 -0.265625,0 -0.265625,0.1875 0,0.125 0.109375,0.125 0.140625,0.125 0.28125,0 0.984375,-0.03125 1.265625,-0.03125 0.21875,0 0.4375,0.015625 0.640625,0.015625 0.21875,0 0.4375,0.015625 0.640625,0.015625 0.078125,0 0.203125,0 0.203125,-0.203125 0,-0.109375 -0.09375,-0.109375 -0.28125,-0.109375 -0.359375,0 -0.640625,0 -0.640625,-0.17187496 0,-0.0625 0.015625,-0.109375 0.03125,-0.171875 z m 0.71875,-2.96875 c 0.09375,-0.34375 0.109375,-0.375 0.546875,-0.375 h 0.953125 c 0.828125,0 1.359375,0.265625 1.359375,0.953125 0,0.390625 -0.203125,1.25 -0.59375,1.609375 -0.5,0.453125 -1.09375,0.53125 -1.53125,0.53125 H 3.0625 Z m 0,0"
               style="stroke:none" />
          </g>
        </g>
        <g
           transform="translate(-59.19572,-10.209109)"
           style="fill:#000000;fill-opacity:1"
           id="id-be070b49-32f8-4f77-a401-fcad6c24d480">
          <g
             id="g1596"
             transform="translate(182.659,134.765)">
            <path
               style="stroke:none"
               d="M 5.078125,-6.6909336 C 5.0625,-6.7221836 5.03125,-6.8003086 5.03125,-6.8315586 c 0,0 0.171875,-0.140625 0.28125,-0.21875 l 1.75,-1.34375 c 0.9375,-0.703125 1.328125,-0.734375 1.625,-0.765625 0.078125,-0.015625 0.171875,-0.015625 0.171875,-0.203125 0,-0.03125 -0.03125,-0.109375 -0.109375,-0.109375 -0.21875,0 -0.46875,0.03125 -0.703125,0.03125 -0.359375,0 -0.75,-0.03125 -1.109375,-0.03125 -0.0625,0 -0.1875,0 -0.1875,0.203125 0,0.0625 0.046875,0.09375 0.125,0.109375 0.21875,0.015625 0.296875,0.0625 0.296875,0.203125 0,0.1875 -0.296875,0.421875 -0.359375,0.46875 l -3.875,2.984375 0.796875,-3.203125 c 0.078125,-0.359375 0.109375,-0.453125 0.828125,-0.453125 0.25,0 0.34375,0 0.34375,-0.203125 0,-0.078125 -0.078125,-0.109375 -0.140625,-0.109375 -0.28125,0 -1,0.03125 -1.28125,0.03125 -0.28125,0 -0.984375,-0.03125 -1.28125,-0.03125 -0.0625,0 -0.203125,0 -0.203125,0.1875 0,0.125 0.09375,0.125 0.296875,0.125 0.125,0 0.3125,0.015625 0.421875,0.015625 0.15625,0.03125 0.21875,0.046875 0.21875,0.171875 0,0.03125 0,0.0625 -0.03125,0.1875 l -1.34375,5.34375 c -0.09375,0.390625 -0.109375,0.4687501 -0.90625,0.4687501 -0.171875,0 -0.28125,0 -0.28125,0.1875 0,0.125 0.125,0.125 0.15625,0.125 0.28125,0 0.984375,-0.03125 1.265625,-0.03125 0.203125,0 0.421875,0.015625 0.640625,0.015625 0.21875,0 0.4375,0.015625 0.640625,0.015625 0.078125,0 0.203125,0 0.203125,-0.203125 0,-0.109375 -0.09375,-0.109375 -0.28125,-0.109375 -0.375,0 -0.640625,0 -0.640625,-0.1718751 0,-0.078125 0.046875,-0.296875 0.078125,-0.4375 0.140625,-0.53125 0.28125,-1.046875 0.40625,-1.578125 l 1.484375,-1.15625 1.15625,2.6875 c 0.125,0.265625 0.125,0.296875 0.125,0.34375 0,0.3125001 -0.4375,0.3125001 -0.53125,0.3125001 -0.109375,0 -0.21875,0 -0.21875,0.203125 0,0.109375 0.125,0.109375 0.140625,0.109375 0.40625,0 0.828125,-0.03125 1.21875,-0.03125 0.21875,0 0.765625,0.03125 0.984375,0.03125 0.046875,0 0.171875,0 0.171875,-0.203125 0,-0.109375 -0.109375,-0.109375 -0.203125,-0.109375 -0.40625,0 -0.53125,-0.09375 -0.6875,-0.4375001 z m 0,0"
               id="id-bce2b818-71af-40a6-856c-22ed916f2587" />
          </g>
        </g>
        <g
           transform="matrix(0.80044236,0,0,0.80044236,131.57573,131.46065)"
           ns9:version="1.1.0"
           ns9:texconverter="pdflatex"
           ns9:pdfconverter="inkscape"
           ns9:text="$k_1, K_{M_1}$\n$k_2, K_{M_2}$"
           ns9:preamble="C:\\Users\\User\\AppData\\Roaming\\inkscape\\extensions\\textext\\default_packages.tex"
           ns9:scale="1.8027119175543893"
           ns9:alignment="middle center"
           ns9:inkscapeversion="1.0"
           ns9:jacobian_sqrt="0.635957"
           id="g2342">
          <defs
             id="id-5cc75783-b3b9-4838-88e8-bb56e280b253">
            <g
               id="id-9c882b9f-8d8d-4dc6-b0eb-a2cc18dac0d5">
              <symbol
                 id="id-7232bfa4-d990-417c-ad88-dd04bfefcdbd"
                 overflow="visible">
                <path
                   id="id-348a6f07-9a68-4759-b01e-6e8cad90319e"
                   d=""
                   style="stroke:none" />
              </symbol>
              <symbol
                 id="id-709d2899-e9c2-429b-8e86-c8d35ada86aa"
                 overflow="visible">
                <path
                   id="id-b3321048-375b-4a2a-b38c-f05ac26f8ef2"
                   d="m 2.859375,-6.8125 c 0,0 0,-0.109375 -0.125,-0.109375 -0.234375,0 -0.953125,0.078125 -1.21875,0.109375 -0.078125,0 -0.1875,0.015625 -0.1875,0.1875 0,0.125 0.09375,0.125 0.234375,0.125 0.484375,0 0.5,0.0625 0.5,0.171875 L 2.03125,-6.125 0.59375,-0.390625 c -0.046875,0.140625 -0.046875,0.15625 -0.046875,0.21875 0,0.234375 0.203125,0.28125 0.296875,0.28125 0.125,0 0.265625,-0.09375 0.328125,-0.203125 0.046875,-0.09375 0.5,-1.9375 0.5625,-2.1875 0.34375,0.03125 1.15625,0.1875 1.15625,0.84375 0,0.078125 0,0.109375 -0.03125,0.21875 -0.015625,0.109375 -0.03125,0.234375 -0.03125,0.34375 0,0.578125 0.390625,0.984375 0.90625,0.984375 0.296875,0 0.578125,-0.15625 0.796875,-0.53125 0.25,-0.4375 0.359375,-0.984375 0.359375,-1 0,-0.109375 -0.09375,-0.109375 -0.125,-0.109375 -0.09375,0 -0.109375,0.046875 -0.140625,0.1875 -0.203125,0.71875 -0.421875,1.234375 -0.859375,1.234375 -0.203125,0 -0.328125,-0.109375 -0.328125,-0.46875 0,-0.171875 0.046875,-0.40625 0.078125,-0.5625 C 3.5625,-1.3125 3.5625,-1.34375 3.5625,-1.453125 3.5625,-2.09375 2.9375,-2.375 2.078125,-2.5 2.390625,-2.671875 2.71875,-2.984375 2.9375,-3.234375 3.421875,-3.765625 3.875,-4.1875 4.359375,-4.1875 c 0.0625,0 0.078125,0 0.09375,0.015625 0.125,0.015625 0.125,0.015625 0.21875,0.078125 0.015625,0 0.015625,0.015625 0.03125,0.03125 -0.46875,0.03125 -0.5625,0.421875 -0.5625,0.546875 0,0.15625 0.109375,0.34375 0.375,0.34375 0.265625,0 0.546875,-0.21875 0.546875,-0.609375 0,-0.296875 -0.234375,-0.625 -0.671875,-0.625 -0.28125,0 -0.734375,0.078125 -1.453125,0.875 -0.34375,0.375 -0.734375,0.78125 -1.109375,0.921875 z m 0,0"
                   style="stroke:none" />
              </symbol>
              <symbol
                 id="id-4329be7f-5ada-4f5e-b5a9-5fb073b3ba7d"
                 overflow="visible">
                <path
                   id="id-c97c8742-3a02-4b87-a529-a307bcedf106"
                   d="m 2.03125,-0.015625 c 0,-0.65625 -0.25,-1.046875 -0.640625,-1.046875 -0.328125,0 -0.53125,0.25 -0.53125,0.53125 C 0.859375,-0.265625 1.0625,0 1.390625,0 1.5,0 1.640625,-0.046875 1.734375,-0.125 1.765625,-0.15625 1.78125,-0.15625 1.78125,-0.15625 c 0.015625,0 0.015625,0 0.015625,0.140625 0,0.75 -0.34375,1.34375 -0.671875,1.671875 -0.109375,0.109375 -0.109375,0.125 -0.109375,0.15625 0,0.078125 0.046875,0.109375 0.09375,0.109375 0.109375,0 0.921875,-0.765625 0.921875,-1.9375 z m 0,0"
                   style="stroke:none" />
              </symbol>
              <symbol
                 id="id-20929a7a-ebae-4d61-82dd-7f3b1e05cf88"
                 overflow="visible">
                <path
                   id="id-dda94a02-bada-48a4-93d1-0f522b646a71"
                   d="M 5.078125,-4.03125 C 5.0625,-4.0625 5.03125,-4.140625 5.03125,-4.171875 c 0,0 0.171875,-0.140625 0.28125,-0.21875 l 1.75,-1.34375 C 8,-6.4375 8.390625,-6.46875 8.6875,-6.5 8.765625,-6.515625 8.859375,-6.515625 8.859375,-6.703125 8.859375,-6.734375 8.828125,-6.8125 8.75,-6.8125 c -0.21875,0 -0.46875,0.03125 -0.703125,0.03125 -0.359375,0 -0.75,-0.03125 -1.109375,-0.03125 -0.0625,0 -0.1875,0 -0.1875,0.203125 0,0.0625 0.046875,0.09375 0.125,0.109375 0.21875,0.015625 0.296875,0.0625 0.296875,0.203125 0,0.1875 -0.296875,0.421875 -0.359375,0.46875 L 2.9375,-2.84375 3.734375,-6.046875 C 3.8125,-6.40625 3.84375,-6.5 4.5625,-6.5 c 0.25,0 0.34375,0 0.34375,-0.203125 0,-0.078125 -0.078125,-0.109375 -0.140625,-0.109375 -0.28125,0 -1,0.03125 -1.28125,0.03125 C 3.203125,-6.78125 2.5,-6.8125 2.203125,-6.8125 2.140625,-6.8125 2,-6.8125 2,-6.625 2,-6.5 2.09375,-6.5 2.296875,-6.5 c 0.125,0 0.3125,0.015625 0.421875,0.015625 0.15625,0.03125 0.21875,0.046875 0.21875,0.171875 0,0.03125 0,0.0625 -0.03125,0.1875 L 1.5625,-0.78125 c -0.09375,0.390625 -0.109375,0.46875 -0.90625,0.46875 -0.171875,0 -0.28125,0 -0.28125,0.1875 C 0.375,0 0.5,0 0.53125,0 0.8125,0 1.515625,-0.03125 1.796875,-0.03125 2,-0.03125 2.21875,-0.015625 2.4375,-0.015625 2.65625,-0.015625 2.875,0 3.078125,0 3.15625,0 3.28125,0 3.28125,-0.203125 3.28125,-0.3125 3.1875,-0.3125 3,-0.3125 c -0.375,0 -0.640625,0 -0.640625,-0.171875 0,-0.078125 0.046875,-0.296875 0.078125,-0.4375 C 2.578125,-1.453125 2.71875,-1.96875 2.84375,-2.5 l 1.484375,-1.15625 1.15625,2.6875 c 0.125,0.265625 0.125,0.296875 0.125,0.34375 0,0.3125 -0.4375,0.3125 -0.53125,0.3125 -0.109375,0 -0.21875,0 -0.21875,0.203125 C 4.859375,0 4.984375,0 5,0 5.40625,0 5.828125,-0.03125 6.21875,-0.03125 6.4375,-0.03125 6.984375,0 7.203125,0 7.25,0 7.375,0 7.375,-0.203125 7.375,-0.3125 7.265625,-0.3125 7.171875,-0.3125 c -0.40625,0 -0.53125,-0.09375 -0.6875,-0.4375 z m 0,0"
                   style="stroke:none" />
              </symbol>
              <symbol
                 id="id-19ed795d-0195-4e5e-93ea-d66210647f00"
                 overflow="visible">
                <path
                   id="id-465e31e4-6359-47e9-8e9c-caf993d6473c"
                   d=""
                   style="stroke:none" />
              </symbol>
              <symbol
                 id="id-dd8dd0da-42de-4909-82ed-2f22f1d02504"
                 overflow="visible">
                <path
                   id="id-e3a61c7d-4edd-415f-b823-787d6fc66de0"
                   d="m 2.328125,-4.4375 c 0,-0.1875 0,-0.1875 -0.203125,-0.1875 -0.453125,0.4375 -1.078125,0.4375 -1.359375,0.4375 v 0.25 c 0.15625,0 0.625,0 1,-0.1875 v 3.546875 c 0,0.234375 0,0.328125 -0.6875,0.328125 H 0.8125 V 0 c 0.125,0 0.984375,-0.03125 1.234375,-0.03125 0.21875,0 1.09375,0.03125 1.25,0.03125 V -0.25 H 3.03125 c -0.703125,0 -0.703125,-0.09375 -0.703125,-0.328125 z m 0,0"
                   style="stroke:none" />
              </symbol>
              <symbol
                 id="id-421d0bfb-cc14-49d9-bde4-4c63a4324bbd"
                 overflow="visible">
                <path
                   id="id-aa2019cd-8df7-4759-ad43-db16124ae413"
                   d="M 3.515625,-1.265625 H 3.28125 c -0.015625,0.15625 -0.09375,0.5625 -0.1875,0.625 C 3.046875,-0.59375 2.515625,-0.59375 2.40625,-0.59375 H 1.125 c 0.734375,-0.640625 0.984375,-0.84375 1.390625,-1.171875 0.515625,-0.40625 1,-0.84375 1,-1.5 0,-0.84375 -0.734375,-1.359375 -1.625,-1.359375 -0.859375,0 -1.453125,0.609375 -1.453125,1.25 0,0.34375 0.296875,0.390625 0.375,0.390625 0.15625,0 0.359375,-0.125 0.359375,-0.375 0,-0.125 -0.046875,-0.375 -0.40625,-0.375 C 0.984375,-4.21875 1.453125,-4.375 1.78125,-4.375 c 0.703125,0 1.0625,0.546875 1.0625,1.109375 0,0.609375 -0.4375,1.078125 -0.65625,1.328125 L 0.515625,-0.265625 C 0.4375,-0.203125 0.4375,-0.1875 0.4375,0 h 2.875 z m 0,0"
                   style="stroke:none" />
              </symbol>
              <symbol
                 id="id-6f696364-285a-4f5b-b572-abd031846073"
                 overflow="visible">
                <path
                   id="id-b0e5cf08-5bcf-40c2-9219-f39f0c7ecaaa"
                   d=""
                   style="stroke:none" />
              </symbol>
              <symbol
                 id="id-9208b57d-0f15-4507-b67d-70f941c4373a"
                 overflow="visible">
                <path
                   id="id-5a1e0eb3-72f5-40bf-9d05-1c9cfc41af53"
                   d="m 7.109375,-4.1875 c 0.0625,-0.265625 0.078125,-0.328125 0.59375,-0.328125 0.15625,0 0.234375,0 0.234375,-0.140625 0,-0.109375 -0.078125,-0.109375 -0.203125,-0.109375 H 6.78125 c -0.203125,0 -0.203125,0.015625 -0.296875,0.140625 l -2.6875,3.984375 -0.6875,-3.9375 c -0.03125,-0.171875 -0.03125,-0.1875 -0.25,-0.1875 H 1.875 c -0.140625,0 -0.234375,0 -0.234375,0.15625 0,0.09375 0.078125,0.09375 0.234375,0.09375 0.109375,0 0.140625,0 0.265625,0.015625 0.140625,0.015625 0.15625,0.03125 0.15625,0.109375 0,0 0,0.046875 -0.03125,0.140625 l -0.875,3.5 c -0.0625,0.234375 -0.171875,0.484375 -0.734375,0.5 -0.046875,0 -0.140625,0 -0.140625,0.15625 0,0 0,0.09375 0.109375,0.09375 0.203125,0 0.5,-0.03125 0.71875,-0.03125 C 1.515625,-0.03125 1.921875,0 2.078125,0 2.125,0 2.21875,0 2.21875,-0.15625 2.21875,-0.25 2.125,-0.25 2.0625,-0.25 1.625,-0.265625 1.625,-0.453125 1.625,-0.546875 c 0,-0.03125 0,-0.0625 0.03125,-0.171875 l 0.921875,-3.703125 0.75,4.234375 C 3.359375,-0.0625 3.359375,0 3.46875,0 3.5625,0 3.625,-0.078125 3.671875,-0.15625 L 6.59375,-4.5 6.609375,-4.484375 5.625,-0.546875 C 5.5625,-0.3125 5.546875,-0.25 5.015625,-0.25 c -0.125,0 -0.21875,0 -0.21875,0.15625 0,0 0,0.09375 0.109375,0.09375 0.140625,0 0.296875,-0.015625 0.4375,-0.015625 0.140625,0 0.296875,-0.015625 0.4375,-0.015625 C 5.984375,-0.03125 6.46875,0 6.671875,0 6.703125,0 6.8125,0 6.8125,-0.15625 6.8125,-0.25 6.734375,-0.25 6.59375,-0.25 c -0.015625,0 -0.140625,0 -0.265625,-0.015625 -0.15625,-0.015625 -0.15625,-0.03125 -0.15625,-0.109375 0,-0.03125 0.015625,-0.109375 0.015625,-0.140625 z m 0,0"
                   style="stroke:none" />
              </symbol>
              <symbol
                 id="id-a82680ec-1cc8-4295-8c81-7ac112248a1d"
                 overflow="visible">
                <path
                   id="id-86486565-14bf-47b6-8e49-fab50806335f"
                   d=""
                   style="stroke:none" />
              </symbol>
              <symbol
                 id="id-97eaba3b-6a3c-42d1-a7ab-3283718e9da5"
                 overflow="visible">
                <path
                   id="id-fb8b46d9-dbb0-4745-9219-818302164f1a"
                   d="M 1.984375,-3.171875 C 1.984375,-3.3125 1.96875,-3.3125 1.796875,-3.3125 1.453125,-3 0.890625,-3 0.796875,-3 H 0.71875 v 0.21875 h 0.078125 c 0.109375,0 0.4375,-0.015625 0.734375,-0.140625 v 2.5 c 0,0.140625 0,0.203125 -0.53125,0.203125 H 0.75 V 0 c 0.265625,-0.015625 0.71875,-0.015625 1,-0.015625 0.296875,0 0.734375,0 1.015625,0.015625 v -0.21875 h -0.25 c -0.53125,0 -0.53125,-0.0625 -0.53125,-0.203125 z m 0,0"
                   style="stroke:none" />
              </symbol>
              <symbol
                 id="id-7d72fdde-5424-4ed2-993b-f10228277175"
                 overflow="visible">
                <path
                   id="id-008182b9-6008-4520-acfb-59dce8773bd6"
                   d="M 2.9375,-0.96875 H 2.71875 c 0,0.09375 -0.0625,0.40625 -0.140625,0.453125 -0.03125,0.03125 -0.453125,0.03125 -0.53125,0.03125 H 1.078125 C 1.40625,-0.71875 1.765625,-1 2.0625,-1.203125 c 0.453125,-0.3125 0.875,-0.59375 0.875,-1.125 0,-0.640625 -0.609375,-0.984375 -1.3125,-0.984375 -0.671875,0 -1.171875,0.375 -1.171875,0.875 0,0.25 0.21875,0.296875 0.296875,0.296875 0.125,0 0.28125,-0.09375 0.28125,-0.296875 0,-0.171875 -0.125,-0.28125 -0.28125,-0.28125 0.140625,-0.234375 0.4375,-0.375 0.765625,-0.375 0.484375,0 0.890625,0.28125 0.890625,0.765625 0,0.421875 -0.296875,0.75 -0.671875,1.0625 l -1.21875,1.03125 C 0.46875,-0.1875 0.453125,-0.1875 0.453125,-0.15625 V 0 h 2.3125 z m 0,0"
                   style="stroke:none" />
              </symbol>
            </g>
          </defs>
          <g
             transform="translate(-149.259,-127.843)"
             id="id-86714642-e7af-4f35-97f2-5d81ff108e31">
            <g
               id="id-9190218e-92a5-4d13-a765-b28ddebbddbb"
               style="fill:#000000;fill-opacity:1">
              <g
                 transform="translate(148.712,134.765)"
                 id="g2294">
                <path
                   id="id-5282eb7d-524b-4362-8f46-256258cef016"
                   d="m 1.1979914,-8.4738836 c 0,0 0,-0.109375 -0.125,-0.109375 -0.23437496,0 -0.95312492,0.078125 -1.21874992,0.109375 -0.078125,0 -0.1875,0.015625 -0.1875,0.1875 0,0.125 0.09375,0.125 0.234375,0.125 0.48437496,0 0.49999996,0.0625 0.49999996,0.171875 l -0.03125,0.203125 -1.43749994,5.734375 c -0.046875,0.140625 -0.046875,0.15625 -0.046875,0.21875 0,0.2343751 0.20312498,0.2812501 0.29687498,0.2812501 0.125,0 0.265625,-0.09375 0.328125,-0.203125 0.046875,-0.09375 0.5,-1.9375001 0.5625,-2.1875001 0.34374996,0.03125 1.15624992,0.1875 1.15624992,0.84375 0,0.078125 0,0.109375 -0.03125,0.21875 -0.015625,0.109375 -0.03125,0.234375 -0.03125,0.34375 0,0.578125 0.390625,0.9843751 0.90625,0.9843751 0.296875,0 0.578125,-0.15625 0.796875,-0.5312501 0.25,-0.4375 0.359375,-0.984375 0.359375,-1 0,-0.109375 -0.09375,-0.109375 -0.125,-0.109375 -0.09375,0 -0.109375,0.046875 -0.140625,0.1875 -0.203125,0.71875 -0.421875,1.2343751 -0.859375,1.2343751 -0.203125,0 -0.328125,-0.1093751 -0.328125,-0.4687501 0,-0.171875 0.046875,-0.40625 0.078125,-0.5625 0.046875,-0.171875 0.046875,-0.203125 0.046875,-0.3125 0,-0.640625 -0.625,-0.921875 -1.48437496,-1.046875 0.3125,-0.171875 0.64062496,-0.484375 0.85937496,-0.734375 0.484375,-0.53125 0.9375,-0.953125 1.421875,-0.953125 0.0625,0 0.078125,0 0.09375,0.015625 0.125,0.015625 0.125,0.015625 0.21875,0.078125 0.015625,0 0.015625,0.015625 0.03125,0.03125 -0.46875,0.03125 -0.5625,0.421875 -0.5625,0.546875 0,0.15625 0.109375,0.34375 0.375,0.34375 0.265625,0 0.546875,-0.21875 0.546875,-0.609375 0,-0.296875 -0.234375,-0.625 -0.671875,-0.625 -0.28125,0 -0.734375,0.078125 -1.453125,0.875 -0.34374996,0.375 -0.73437496,0.78125 -1.10937492,0.921875 z m 0,0"
                   style="stroke:none" />
              </g>
            </g>
            <g
               id="id-eb4fc49a-a713-45ed-84fc-5e625e30a67b"
               style="fill:#000000;fill-opacity:1">
              <g
                 transform="translate(153.899,136.259)"
                 id="g2298">
                <path
                   id="id-60d0384e-8ae4-4ba1-9d1f-a443cd28c338"
                   d="m 0.66674144,-6.0988836 c 0,-0.1875 0,-0.1875 -0.203125,-0.1875 -0.45312496,0.4375 -1.07812496,0.4375 -1.35937496,0.4375 v 0.25 c 0.15625,0 0.625,0 1,-0.1875 v 3.546875 c 0,0.234375 0,0.328125 -0.6875,0.328125 h -0.265625 v 0.2500001 c 0.125,0 0.984375,-0.03125 1.23437496,-0.03125 0.21875,0 1.09374996,0.03125 1.24999996,0.03125 v -0.2500001 h -0.265625 c -0.70312496,0 -0.70312496,-0.09375 -0.70312496,-0.328125 z m 0,0"
                   style="stroke:none" />
              </g>
            </g>
            <g
               id="id-3b79d4d0-cf44-4c95-bfa8-95fc3953b98d"
               style="fill:#000000;fill-opacity:1">
              <g
                 transform="translate(158.368,134.765)"
                 id="g2302">
                <path
                   id="id-e300cd22-7c55-4164-ae12-687d4c9387e4"
                   d="m 0.36986644,-1.6770085 c 0,-0.6562501 -0.24999996,-1.0468751 -0.64062496,-1.0468751 -0.328125,0 -0.53125,0.25 -0.53125,0.53125 0,0.265625 0.203125,0.5312501 0.53125,0.5312501 0.109375,0 0.25,-0.046875 0.34375,-0.125 0.03125,-0.03125 0.046875,-0.03125 0.046875,-0.03125 0.015625,0 0.015625,0 0.015625,0.140625 0,0.74999998 -0.34375,1.34374998 -0.671875,1.67187498 -0.109375,0.109375 -0.109375,0.125 -0.109375,0.15625 0,0.078125 0.046875,0.10937496 0.09375,0.10937496 0.109375,0 0.92187496,-0.76562496 0.92187496,-1.93749994 z m 0,0"
                   style="stroke:none" />
              </g>
            </g>
            <g
               id="id-b87649f0-5573-4bca-a469-18eb079f3083"
               style="fill:#000000;fill-opacity:1">
              <g
                 transform="translate(162.799,134.765)"
                 id="g2306">
                <path
                   id="id-e0cf2160-99ca-4631-9c19-b12b4680e3a4"
                   d="m 3.4167414,-5.6926336 c -0.015625,-0.03125 -0.046875,-0.109375 -0.046875,-0.140625 0,0 0.171875,-0.140625 0.28125,-0.21875 l 1.75,-1.34375 c 0.9375,-0.703125 1.328125,-0.734375 1.625,-0.765625 0.078125,-0.015625 0.171875,-0.015625 0.171875,-0.203125 0,-0.03125 -0.03125,-0.109375 -0.109375,-0.109375 -0.21875,0 -0.46875,0.03125 -0.703125,0.03125 -0.359375,0 -0.75,-0.03125 -1.109375,-0.03125 -0.0625,0 -0.1875,0 -0.1875,0.203125 0,0.0625 0.046875,0.09375 0.125,0.109375 0.21875,0.015625 0.296875,0.0625 0.296875,0.203125 0,0.1875 -0.296875,0.421875 -0.359375,0.46875 l -3.875,2.984375 0.796875,-3.203125 c 0.078125,-0.359375 0.109375,-0.453125 0.828125,-0.453125 0.25,0 0.34375,0 0.34375,-0.203125 0,-0.078125 -0.078125,-0.109375 -0.140625,-0.109375 -0.28125,0 -1,0.03125 -1.28125,0.03125 -0.28125,0 -0.98437496,-0.03125 -1.28124996,-0.03125 -0.0625,0 -0.203125,0 -0.203125,0.1875 0,0.125 0.09375,0.125 0.296875,0.125 0.125,0 0.3125,0.015625 0.42187496,0.015625 0.15625,0.03125 0.21875,0.046875 0.21875,0.171875 0,0.03125 0,0.0625 -0.03125,0.1875 l -1.34374992,5.34375 c -0.09375,0.390625 -0.109375,0.46875 -0.90624998,0.46875 -0.171875,0 -0.28125,0 -0.28125,0.1875001 0,0.125 0.125,0.125 0.15625,0.125 0.28124998,0 0.98437498,-0.03125 1.26562498,-0.03125 0.20312496,0 0.42187496,0.015625 0.64062496,0.015625 0.21875,0 0.43749996,0.015625 0.64062496,0.015625 0.078125,0 0.203125,0 0.203125,-0.2031251 0,-0.109375 -0.09375,-0.109375 -0.28125,-0.109375 -0.37499996,0 -0.64062496,0 -0.64062496,-0.171875 0,-0.078125 0.046875,-0.296875 0.078125,-0.4375 0.140625,-0.53125 0.28124996,-1.046875 0.40624996,-1.578125 l 1.484375,-1.15625 1.15625,2.6875 c 0.125,0.265625 0.125,0.296875 0.125,0.34375 0,0.3125 -0.4375,0.3125 -0.53125,0.3125 -0.109375,0 -0.21875,0 -0.21875,0.2031251 0,0.109375 0.125,0.109375 0.140625,0.109375 0.40625,0 0.828125,-0.03125 1.21875,-0.03125 0.21875,0 0.765625,0.03125 0.984375,0.03125 0.046875,0 0.171875,0 0.171875,-0.2031251 0,-0.109375 -0.109375,-0.109375 -0.203125,-0.109375 -0.40625,0 -0.53125,-0.09375 -0.6875,-0.4375 z m 0,0"
                   style="stroke:none" />
              </g>
            </g>
            <g
               id="id-5b282fa0-c31b-4ce7-ad9a-32e3235a7aa8"
               style="fill:#000000;fill-opacity:1">
              <g
                 transform="translate(171.257,136.259)"
                 id="g2310">
                <path
                   id="id-b565f53a-29f4-4d87-97f1-cba409414f6e"
                   d="m 5.4479914,-5.8488836 c 0.0625,-0.265625 0.078125,-0.328125 0.59375,-0.328125 0.15625,0 0.234375,0 0.234375,-0.140625 0,-0.109375 -0.078125,-0.109375 -0.203125,-0.109375 h -0.953125 c -0.203125,0 -0.203125,0.015625 -0.296875,0.140625 l -2.6875,3.984375 -0.6875,-3.9375 c -0.03125,-0.171875 -0.03125,-0.1875 -0.25,-0.1875 H 0.21361644 c -0.14062496,0 -0.23437496,0 -0.23437496,0.15625 0,0.09375 0.078125,0.09375 0.23437496,0.09375 0.109375,0 0.140625,0 0.265625,0.015625 0.140625,0.015625 0.15625,0.03125 0.15625,0.109375 0,0 0,0.046875 -0.03125,0.140625 l -0.87499996,3.5 c -0.0625,0.234375 -0.171875,0.484375 -0.73437498,0.5 -0.046875,0 -0.140625,0 -0.140625,0.1562501 0,0 0,0.09375 0.109375,0.09375 0.20312498,0 0.49999998,-0.03125 0.71874998,-0.03125 0.171875,0 0.57812496,0.03125 0.73437496,0.03125 0.046875,0 0.140625,0 0.140625,-0.15625 0,-0.09375 -0.09375,-0.09375 -0.15625,-0.09375 -0.43749996,-0.015625 -0.43749996,-0.203125 -0.43749996,-0.296875 0,-0.03125 0,-0.0625 0.03125,-0.171875 l 0.92187496,-3.703125 0.74999996,4.234375 c 0.03125,0.125 0.03125,0.1875 0.140625,0.1875 0.09375,0 0.15625,-0.078125 0.203125,-0.15625 l 2.921875,-4.34375 0.015625,0.015625 -0.984375,3.9375 c -0.0625,0.234375 -0.078125,0.296875 -0.609375,0.296875 -0.125,0 -0.21875,0 -0.21875,0.15625 0,0 0,0.09375 0.109375,0.09375 0.140625,0 0.296875,-0.015625 0.4375,-0.015625 0.140625,0 0.296875,-0.015625 0.4375,-0.015625 0.203125,0 0.6875,0.03125 0.890625,0.03125 0.03125,0 0.140625,0 0.140625,-0.15625 0,-0.09375 -0.078125,-0.09375 -0.21875,-0.09375 -0.015625,0 -0.140625,0 -0.265625,-0.015625 -0.15625,-0.015625 -0.15625,-0.03125 -0.15625,-0.109375 0,-0.03125 0.015625,-0.109375 0.015625,-0.140625 z m 0,0"
                   style="stroke:none" />
              </g>
            </g>
            <g
               id="id-7c4e08cb-83cb-4642-8c00-a7f0662d57be"
               style="fill:#000000;fill-opacity:1">
              <g
                 transform="translate(178.855,137.256)"
                 id="g2314">
                <path
                   id="id-9250f08f-3293-4a63-83f5-5b27e2b90663"
                   d="m 0.32299144,-4.8332586 c 0,-0.140625 -0.015625,-0.140625 -0.18749996,-0.140625 -0.34375,0.3125 -0.90625,0.3125 -1,0.3125 h -0.078125 v 0.21875 h 0.078125 c 0.109375,0 0.4375,-0.015625 0.734375,-0.140625 v 2.5 c 0,0.140625 0,0.203125 -0.53125,0.203125 h -0.25 v 0.2187501 c 0.265625,-0.015625 0.71875,-0.015625 1,-0.015625 0.29687496,0 0.73437496,0 1.01562492,0.015625 V -1.8801336 H 0.85424144 c -0.53125,0 -0.53125,-0.0625 -0.53125,-0.203125 z m 0,0"
                   style="stroke:none" />
              </g>
            </g>
            <g
               id="id-b4418055-8987-43d9-8932-c082f4c43cc1"
               style="fill:#000000;fill-opacity:1">
              <g
                 transform="translate(186.561,134.765)"
                 id="g2318" />
            </g>
            <g
               id="id-a93de5f3-b9c4-4666-acfd-06d77be5d522"
               style="fill:#000000;fill-opacity:1">
              <g
                 transform="translate(191.748,136.259)"
                 id="g2322" />
            </g>
            <g
               id="id-3df74ebb-f0c8-4ab0-adbb-fe434c9166e8"
               style="fill:#000000;fill-opacity:1">
              <g
                 transform="translate(196.217,134.765)"
                 id="g2326" />
            </g>
            <g
               id="id-0110384d-272b-4524-9d6f-6e1080b2ed7e"
               style="fill:#000000;fill-opacity:1">
              <g
                 transform="translate(200.648,134.765)"
                 id="g2330" />
            </g>
            <g
               id="id-7a3494d0-456c-4b7e-89c0-ebd0b18801bb"
               style="fill:#000000;fill-opacity:1">
              <g
                 transform="translate(209.106,136.259)"
                 id="g2334" />
            </g>
            <g
               id="id-4ce81d1c-24ba-4556-8512-7e617c1e9d23"
               style="fill:#000000;fill-opacity:1">
              <g
                 transform="translate(216.703,137.256)"
                 id="g2338" />
            </g>
          </g>
        </g>
        <path
           style="fill:#000000;fill-opacity:1;stroke:none;stroke-width:0.800442"
           d="m 132.09677,159.47506 c 0,0 0,-0.0875 -0.10005,-0.0875 -0.18761,0 -0.76293,0.0625 -0.97554,0.0875 -0.0625,0 -0.15009,0.0125 -0.15009,0.15008 0,0.10006 0.075,0.10006 0.18761,0.10006 0.38771,0 0.40022,0.05 0.40022,0.13758 l -0.025,0.16258 -1.15064,4.59004 c -0.0375,0.11256 -0.0375,0.12507 -0.0375,0.1751 0,0.1876 0.16259,0.22512 0.23764,0.22512 0.10005,0 0.21261,-0.075 0.26264,-0.16259 0.0375,-0.075 0.40022,-1.55085 0.45025,-1.75096 0.27515,0.025 0.92551,0.15008 0.92551,0.67537 0,0.0625 0,0.0876 -0.025,0.1751 -0.0125,0.0875 -0.025,0.1876 -0.025,0.27515 0,0.46275 0.31267,0.78793 0.7254,0.78793 0.23763,0 0.46276,-0.12507 0.63785,-0.42523 0.20011,-0.3502 0.28766,-0.78794 0.28766,-0.80044 0,-0.0876 -0.075,-0.0876 -0.10005,-0.0876 -0.075,0 -0.0876,0.0375 -0.11256,0.15008 -0.16259,0.57532 -0.33769,0.98805 -0.68788,0.98805 -0.16259,0 -0.26265,-0.0875 -0.26265,-0.37521 0,-0.13758 0.0375,-0.32518 0.0625,-0.45025 0.0375,-0.13758 0.0375,-0.16259 0.0375,-0.25014 0,-0.51278 -0.50028,-0.73791 -1.18816,-0.83796 0.25014,-0.13758 0.51279,-0.38772 0.68788,-0.58783 0.38772,-0.42523 0.75042,-0.76292 1.13813,-0.76292 0.05,0 0.0625,0 0.075,0.0125 0.10006,0.0125 0.10006,0.0125 0.1751,0.0625 0.0125,0 0.0125,0.0125 0.025,0.025 -0.37521,0.025 -0.45025,0.33768 -0.45025,0.43774 0,0.12507 0.0875,0.27515 0.30017,0.27515 0.21261,0 0.43774,-0.1751 0.43774,-0.48777 0,-0.23763 -0.1876,-0.50028 -0.5378,-0.50028 -0.22512,0 -0.58782,0.0625 -1.16314,0.70039 -0.27515,0.30017 -0.58783,0.62535 -0.88799,0.73791 z m 0,0"
           id="id-f37256bc-444b-4f93-8b22-2bc38260e5fa" />
        <path
           style="fill:#000000;fill-opacity:1;stroke:none;stroke-width:0.800442"
           d="m 136.77395,165.11088 h -0.1876 c -0.0125,0.12506 -0.075,0.45024 -0.15008,0.50027 -0.0375,0.0375 -0.46276,0.0375 -0.55031,0.0375 h -1.02556 c 0.58782,-0.51278 0.78793,-0.67537 1.11311,-0.93802 0.41273,-0.32518 0.80044,-0.67537 0.80044,-1.20066 0,-0.67537 -0.58782,-1.0881 -1.30071,-1.0881 -0.68788,0 -1.16315,0.48777 -1.16315,1.00055 0,0.27515 0.23763,0.31268 0.30017,0.31268 0.12507,0 0.28766,-0.10006 0.28766,-0.30017 0,-0.10006 -0.0375,-0.30017 -0.32518,-0.30017 0.17509,-0.38771 0.5503,-0.51278 0.81295,-0.51278 0.56281,0 0.85047,0.43774 0.85047,0.88799 0,0.48777 -0.3502,0.86298 -0.52529,1.06309 l -1.33824,1.33824 c -0.0625,0.05 -0.0625,0.0625 -0.0625,0.21262 h 2.30127 z m 0,0"
           id="id-e86168b7-e56b-4719-8a83-9208dcc08109" />
        <path
           style="fill:#000000;fill-opacity:1;stroke:none;stroke-width:0.800442"
           d="m 139.16298,164.91557 c 0,-0.52529 -0.20011,-0.83797 -0.51279,-0.83797 -0.26264,0 -0.42523,0.20011 -0.42523,0.42524 0,0.21262 0.16259,0.42523 0.42523,0.42523 0.0875,0 0.20011,-0.0375 0.27515,-0.10005 0.025,-0.025 0.0375,-0.025 0.0375,-0.025 0.0125,0 0.0125,0 0.0125,0.11257 0,0.60033 -0.27515,1.07559 -0.53779,1.33824 -0.0875,0.0875 -0.0875,0.10005 -0.0875,0.12507 0,0.0625 0.0375,0.0875 0.075,0.0875 0.0875,0 0.7379,-0.61284 0.7379,-1.55085 z m 0,0"
           id="id-8a78c38f-4243-496f-8dd9-aef5d9c61d4d" />
        <path
           style="fill:#000000;fill-opacity:1;stroke:none;stroke-width:0.800442"
           d="m 145.14858,161.70129 c -0.0125,-0.025 -0.0375,-0.0875 -0.0375,-0.11256 0,0 0.13758,-0.11256 0.22513,-0.1751 l 1.40077,-1.07559 c 0.75042,-0.56281 1.06309,-0.58783 1.30072,-0.61284 0.0625,-0.0125 0.13758,-0.0125 0.13758,-0.16259 0,-0.025 -0.025,-0.0876 -0.0875,-0.0876 -0.1751,0 -0.37521,0.025 -0.56281,0.025 -0.28766,0 -0.60034,-0.025 -0.88799,-0.025 -0.05,0 -0.15009,0 -0.15009,0.16259 0,0.05 0.0375,0.075 0.10006,0.0875 0.17509,0.0125 0.23763,0.05 0.23763,0.16259 0,0.15008 -0.23763,0.33769 -0.28766,0.37521 l -3.10171,2.38882 0.63785,-2.56392 c 0.0625,-0.28766 0.0875,-0.3627 0.66287,-0.3627 0.20011,0 0.27515,0 0.27515,-0.16259 0,-0.0625 -0.0625,-0.0876 -0.11256,-0.0876 -0.22513,0 -0.80045,0.025 -1.02557,0.025 -0.22513,0 -0.78794,-0.025 -1.02557,-0.025 -0.05,0 -0.16259,0 -0.16259,0.15008 0,0.10006 0.075,0.10006 0.23763,0.10006 0.10006,0 0.25014,0.0125 0.33769,0.0125 0.12507,0.025 0.1751,0.0375 0.1751,0.13757 0,0.025 0,0.05 -0.025,0.15008 l -1.0756,4.27737 c -0.075,0.31267 -0.0875,0.37521 -0.7254,0.37521 -0.13757,0 -0.22512,0 -0.22512,0.15008 0,0.10005 0.10005,0.10005 0.12507,0.10005 0.22512,0 0.78793,-0.025 1.01306,-0.025 0.16259,0 0.33768,0.0125 0.51278,0.0125 0.1751,0 0.35019,0.0125 0.51278,0.0125 0.0625,0 0.16259,0 0.16259,-0.16259 0,-0.0875 -0.075,-0.0875 -0.22512,-0.0875 -0.30017,0 -0.51279,0 -0.51279,-0.13758 0,-0.0625 0.0375,-0.23763 0.0625,-0.35019 0.11257,-0.42524 0.22513,-0.83797 0.32518,-1.2632 l 1.18816,-0.92551 0.92551,2.15119 c 0.10006,0.21261 0.10006,0.23763 0.10006,0.27515 0,0.25014 -0.3502,0.25014 -0.42524,0.25014 -0.0875,0 -0.17509,0 -0.17509,0.16259 0,0.0875 0.10005,0.0875 0.11256,0.0875 0.32518,0 0.66286,-0.025 0.97554,-0.025 0.17509,0 0.61284,0.025 0.78793,0.025 0.0375,0 0.13758,0 0.13758,-0.16259 0,-0.0875 -0.0875,-0.0875 -0.16259,-0.0875 -0.32518,0 -0.42524,-0.0751 -0.55031,-0.3502 z m 0,0"
           id="id-3b0acfd9-cba3-4199-a40f-6353426c5b3a" />
        <path
           style="fill:#000000;fill-opacity:1;stroke:none;stroke-width:0.800442"
           d="m 153.54462,162.77208 c 0.05,-0.21261 0.0625,-0.26264 0.47527,-0.26264 0.12507,0 0.1876,0 0.1876,-0.11256 0,-0.0876 -0.0625,-0.0876 -0.16259,-0.0876 h -0.76292 c -0.16259,0 -0.16259,0.0125 -0.23763,0.11256 l -2.15119,3.18926 -0.55031,-3.15174 c -0.025,-0.13758 -0.025,-0.15008 -0.20011,-0.15008 h -0.78793 c -0.11256,0 -0.18761,0 -0.18761,0.12507 0,0.075 0.0625,0.075 0.18761,0.075 0.0875,0 0.11256,0 0.21262,0.0125 0.11256,0.0125 0.12507,0.025 0.12507,0.0876 0,0 0,0.0375 -0.025,0.11256 l -0.70039,2.80155 c -0.05,0.18761 -0.13758,0.38772 -0.58783,0.40022 -0.0375,0 -0.11256,0 -0.11256,0.12507 0,0 0,0.0751 0.0875,0.0751 0.16259,0 0.40022,-0.025 0.57532,-0.025 0.13758,0 0.46276,0.025 0.58782,0.025 0.0375,0 0.11257,0 0.11257,-0.12507 0,-0.0751 -0.075,-0.0751 -0.12507,-0.0751 -0.3502,-0.0125 -0.3502,-0.16259 -0.3502,-0.23763 0,-0.025 0,-0.05 0.025,-0.13757 l 0.73791,-2.96414 0.60033,3.38937 c 0.025,0.10006 0.025,0.15009 0.11256,0.15009 0.075,0 0.12507,-0.0625 0.16259,-0.12507 l 2.3388,-3.47693 0.0125,0.0125 -0.78794,3.15174 c -0.05,0.18761 -0.0625,0.23763 -0.48777,0.23763 -0.10005,0 -0.1751,0 -0.1751,0.12507 0,0 0,0.0751 0.0875,0.0751 0.11257,0 0.23764,-0.0125 0.3502,-0.0125 0.11256,0 0.23763,-0.0125 0.35019,-0.0125 0.16259,0 0.55031,0.025 0.7129,0.025 0.025,0 0.11256,0 0.11256,-0.12507 0,-0.0751 -0.0625,-0.0751 -0.1751,-0.0751 -0.0125,0 -0.11256,0 -0.21262,-0.0125 -0.12507,-0.0125 -0.12507,-0.025 -0.12507,-0.0875 0,-0.025 0.0125,-0.0876 0.0125,-0.11256 z m 0,0"
           id="id-7f36b502-a680-40e6-bb89-3092e88a7ce8" />
        <path
           style="fill:#000000;fill-opacity:1;stroke:none;stroke-width:0.800442"
           d="m 156.28624,166.14655 h -0.1751 c 0,0.075 -0.05,0.32518 -0.11256,0.3627 -0.025,0.025 -0.3627,0.025 -0.42523,0.025 h -0.77543 c 0.26264,-0.1876 0.5503,-0.41273 0.78793,-0.57532 0.3627,-0.25013 0.70039,-0.47526 0.70039,-0.90049 0,-0.51279 -0.48777,-0.78794 -1.05058,-0.78794 -0.5378,0 -0.93802,0.30017 -0.93802,0.70039 0,0.20011 0.1751,0.23763 0.23763,0.23763 0.10006,0 0.22513,-0.075 0.22513,-0.23763 0,-0.13758 -0.10006,-0.22513 -0.22513,-0.22513 0.11256,-0.1876 0.3502,-0.30016 0.61284,-0.30016 0.38771,0 0.71289,0.22512 0.71289,0.61284 0,0.33768 -0.23763,0.60033 -0.53779,0.85047 l -0.97554,0.82545 c -0.0375,0.0375 -0.05,0.0375 -0.05,0.0625 v 0.12507 h 1.85102 z m 0,0"
           id="id-af885e33-5573-4702-9deb-b462d58787ff" />
      </g>
    </g>
  </g>
</svg>
